<?xml version="1.0" ?><svg id="Layer_1" style="enable-background:new 0 0 512 512;" version="1.1" viewBox="0 0 512 512" xml:space="preserve" xmlns="http://www.w3.org/2000/svg" xmlns:xlink="http://www.w3.org/1999/xlink"><g><path d="M241,30.6L48,163.8c-2.9,2-2.9,6.2,0,8.2l193,133.2c9.1,6.2,21,6.2,30.1,0L464,172c2.9-2,2.9-6.2,0-8.2   L271,30.6C262,24.4,250,24.4,241,30.6z" id="XMLID_4_"/><path d="M491,176.2L261.3,334.6c-1.6,1.1-3.5,1.7-5.3,1.7s-3.7-0.6-5.3-1.7L21,176.2c-9.1,7.2-15,18.3-15,30.9v239.7   c0,21.7,17.6,39.3,39.3,39.3h421.3c21.7,0,39.3-17.6,39.3-39.3V207C506,194.5,500.1,183.4,491,176.2z M187.1,330.2L71,446.3   c-0.9,0.9-2.1,1.4-3.3,1.4c-1.2,0-2.4-0.5-3.3-1.4c-1.8-1.8-1.8-4.8,0-6.6l116.1-116.1c1.8-1.8,4.8-1.8,6.6,0   C189,325.4,189,328.4,187.1,330.2z M447.6,446.3c-0.9,0.9-2.1,1.4-3.3,1.4s-2.4-0.5-3.3-1.4L324.9,330.2c-1.8-1.8-1.8-4.8,0-6.6   c1.8-1.8,4.8-1.8,6.6,0l116.1,116.1C449.4,441.5,449.4,444.5,447.6,446.3z"/></g></svg>